<svg width="16" height="16" viewBox="0 0 16 16" fill="none" xmlns="http://www.w3.org/2000/svg">
<path fill-rule="evenodd" clip-rule="evenodd" d="M0.725993 1.71958C0.835232 1.48414 1.07119 1.3335 1.33074 1.3335H14.6641C14.9236 1.3335 15.1596 1.48414 15.2688 1.71958C15.3781 1.95502 15.3407 2.23246 15.1731 2.43065L9.9974 8.55093V14.0002C9.9974 14.2312 9.87777 14.4458 9.68122 14.5673C9.48468 14.6887 9.23925 14.6998 9.0326 14.5964L6.36593 13.2631C6.14007 13.1502 5.9974 12.9193 5.9974 12.6668V8.55093L0.821691 2.43065C0.654093 2.23246 0.616754 1.95502 0.725993 1.71958ZM2.76761 2.66683L7.17312 7.87635C7.27489 7.9967 7.33074 8.14921 7.33074 8.30683V12.2548L8.66407 12.9215V8.30683C8.66407 8.14921 8.71991 7.9967 8.82169 7.87635L13.2272 2.66683H2.76761Z" fill="#4A5964"/>
</svg>
