<svg width="1440" height="954" viewBox="0 0 1440 954" fill="none" xmlns="http://www.w3.org/2000/svg">
<g clip-path="url(#clip0_1_5057)">
<path d="M1440.38 -25.9258H0V931.978H1440.38V-25.9258Z" fill="#F7F7FF"/>
<path d="M82.7764 524.604V706.836C82.7764 710.514 85.7686 713.516 89.459 713.516L1440 710.145V574.13L1312.1 568.581C1309.51 568.473 1307.32 566.904 1306.32 564.684C1305.92 563.856 1305.71 562.899 1305.71 561.922V502.36C1305.71 498.683 1302.72 495.701 1299 495.701H1293.81C1290.12 495.701 1287.12 492.719 1287.12 489.042V480.879C1287.12 477.202 1284.13 474.22 1280.42 474.22H1249.96C1246.25 474.22 1243.25 477.202 1243.25 480.879V486.822C1243.25 490.5 1240.26 493.481 1236.57 493.481H1230.63C1226.92 493.481 1223.93 496.463 1223.93 500.141V597.939C1223.93 601.617 1220.94 604.598 1217.25 604.598H1200.41C1199.28 604.598 1198.18 604.317 1197.22 603.791C1195.8 603.008 1194.67 601.745 1194.1 600.159L1174.21 543.861C1173.27 541.206 1170.73 539.422 1167.9 539.422H1142.15C1142.08 539.422 1142.02 539.422 1141.96 539.401C1138.31 539.314 1135.41 536.291 1135.47 532.634C1135.53 529.002 1132.43 526.082 1128.79 526.082H1085.66C1081.92 526.082 1078.91 529.13 1078.97 532.874C1079.04 536.506 1075.94 539.426 1072.27 539.426H1064.84C1061.15 539.426 1058.16 536.423 1058.16 532.746V489.046C1058.16 485.348 1055.15 482.366 1051.46 482.366H982.317C978.627 482.366 975.635 485.348 975.635 489.046V552.744C975.635 556.443 972.642 559.424 968.952 559.424H956.306C952.615 559.424 949.602 562.406 949.602 566.084V579.423C949.602 581.73 948.422 583.776 946.61 584.972C945.563 585.668 944.295 586.082 942.92 586.082H828.381C824.69 586.082 821.698 583.101 821.698 579.423V485.841C821.698 484.076 820.979 482.382 819.732 481.119L781.449 442.969C778.826 440.381 774.591 440.381 771.994 442.969L737.097 477.744C735.83 478.982 735.132 480.68 735.132 482.445V578.682C735.132 582.359 732.139 585.341 728.449 585.341H718.488C714.797 585.341 711.805 582.359 711.805 578.682V544.035C711.805 540.357 708.813 537.376 705.102 537.376H690.165C686.454 537.376 683.462 534.394 683.462 530.716V434.964C683.462 431.266 680.47 428.284 676.78 428.284H657.409C655.531 428.284 653.74 429.066 652.472 430.458L615.348 470.828C614.213 472.046 613.577 473.657 613.577 475.334V528.302C613.577 529.693 613.162 530.977 612.418 532.046C611.217 533.81 609.185 534.961 606.895 534.961H587.57C583.859 534.961 580.867 537.964 580.867 541.641V579.419C580.867 581.726 579.687 583.751 577.895 584.968C576.827 585.664 575.56 586.078 574.184 586.078H565.253C561.563 586.078 560.121 584.641 560.121 580.964L561.717 504.493C561.783 501.404 560.079 498.55 557.307 497.138C550.537 493.655 538.506 485.65 538.506 485.65V448.763C538.506 447.044 523.196 430.288 523.196 430.288C523.458 430.114 523.674 429.936 523.894 429.721C525.723 427.952 526.122 425.02 525.249 422.714C524.921 421.798 524.397 421.016 523.786 420.365C523.653 420.125 523.591 419.864 523.437 419.624C523.022 418.995 522.477 418.514 521.887 418.166C521.841 415.578 521.8 412.986 521.779 410.418C521.671 394.532 523.263 376.881 519.946 361.281C519.813 360.672 518.92 360.672 518.787 361.281C515.466 376.885 517.041 394.511 516.954 410.418C516.933 413.006 516.888 415.619 516.846 418.208C515.907 418.709 515.1 419.405 514.531 420.274C514.311 420.515 514.095 420.775 513.899 421.078C512.283 423.472 512.108 428.304 515.645 430.152C514.968 430.454 499.113 446.344 499.113 448.104L497.629 486.164C497.629 486.164 484.834 494.107 477.715 497.329C474.876 498.633 473.039 501.42 472.977 504.51L470.267 618.542C470.18 621.98 467.495 624.788 464.042 625.028L435.653 627.053C431.768 627.335 428.489 624.266 428.489 620.414V543.116C428.489 539.438 425.476 536.436 421.785 536.436H396.518C392.827 536.436 389.814 533.454 389.814 529.776V523.858C389.814 520.16 386.822 517.178 383.132 517.178H338.519C334.828 517.178 331.836 520.16 331.836 523.858V527.557C331.836 531.234 328.844 534.216 325.154 534.216H315.479C311.788 534.216 308.796 531.234 308.796 527.557V492.736C308.796 489.058 305.804 486.077 302.093 486.077H198.754C197.619 486.077 196.547 486.358 195.608 486.859C193.513 487.969 192.071 490.189 192.071 492.736V578.673C192.071 582.351 189.079 585.333 185.388 585.333H159.356C155.666 585.333 152.674 582.351 152.674 578.673V512.735C152.674 511.277 152.216 509.927 151.406 508.838C150.184 507.16 148.218 506.075 145.97 506.075H140.031C136.341 506.075 133.349 503.073 133.349 499.395V489.038C133.349 485.339 130.357 482.358 126.645 482.358H110.288C106.598 482.358 103.605 485.339 103.605 489.038V511.256C103.605 514.934 100.613 517.915 96.9229 517.915H89.4756C85.7852 517.915 82.793 520.918 82.793 524.595L82.7764 524.604Z" fill="#E9E9FF"/>
<path d="M1035.01 478.017H1044.68V463.162H1035.01V478.017Z" fill="#F7F7FF"/>
<path d="M1012.92 478.017H1022.58V463.162H1012.92V478.017Z" fill="#F7F7FF"/>
<path d="M990.829 478.017H1000.49V463.162H990.829V478.017Z" fill="#F7F7FF"/>
<path d="M1035.01 506.17H1044.68V491.315H1035.01V506.17Z" fill="#F7F7FF"/>
<path d="M1012.92 506.17H1022.58V491.315H1012.92V506.17Z" fill="#F7F7FF"/>
<path d="M990.829 506.17H1000.49V491.315H990.829V506.17Z" fill="#F7F7FF"/>
<path d="M1035.01 534.323H1044.68V519.468H1035.01V534.323Z" fill="#F7F7FF"/>
<path d="M1012.92 534.323H1022.58V519.468H1012.92V534.323Z" fill="#F7F7FF"/>
<path d="M990.829 534.323H1000.49V519.468H990.829V534.323Z" fill="#F7F7FF"/>
<path d="M1035.01 562.471H1044.68V547.616H1035.01V562.471Z" fill="#F7F7FF"/>
<path d="M1012.92 562.471H1022.58V547.616H1012.92V562.471Z" fill="#F7F7FF"/>
<path d="M990.829 562.471H1000.49V547.616H990.829V562.471Z" fill="#F7F7FF"/>
<path d="M1035.01 590.624H1044.68V575.769H1035.01V590.624Z" fill="#F7F7FF"/>
<path d="M1012.92 590.624H1022.58V575.769H1012.92V590.624Z" fill="#F7F7FF"/>
<path d="M990.829 590.624H1000.49V575.769H990.829V590.624Z" fill="#F7F7FF"/>
<path d="M1035.01 618.065H1044.68V603.21H1035.01V618.065Z" fill="#F7F7FF"/>
<path d="M1012.92 618.065H1022.58V603.21H1012.92V618.065Z" fill="#F7F7FF"/>
<path d="M990.829 618.065H1000.49V603.21H990.829V618.065Z" fill="#F7F7FF"/>
<path d="M530.655 492.449H540.322V477.594H530.655V492.449Z" fill="#F7F7FF"/>
<path d="M508.563 492.449H518.229V477.594H508.563V492.449Z" fill="#F7F7FF"/>
<path d="M486.475 492.449H496.137V477.594H486.475V492.449Z" fill="#F7F7FF"/>
<path d="M530.655 520.603H540.322V505.747H530.655V520.603Z" fill="#F7F7FF"/>
<path d="M508.563 520.603H518.229V505.747H508.563V520.603Z" fill="#F7F7FF"/>
<path d="M486.475 520.603H496.137V505.747H486.475V520.603Z" fill="#F7F7FF"/>
<path d="M530.655 548.751H540.322V533.896H530.655V548.751Z" fill="#F7F7FF"/>
<path d="M508.563 548.751H518.229V533.896H508.563V548.751Z" fill="#F7F7FF"/>
<path d="M486.475 548.751H496.137V533.896H486.475V548.751Z" fill="#F7F7FF"/>
<path d="M530.655 576.904H540.322V562.049H530.655V576.904Z" fill="#F7F7FF"/>
<path d="M508.563 576.904H518.229V562.049H508.563V576.904Z" fill="#F7F7FF"/>
<path d="M486.475 576.904H496.137V562.049H486.475V576.904Z" fill="#F7F7FF"/>
<path d="M530.655 605.057H540.322V590.202H530.655V605.057Z" fill="#F7F7FF"/>
<path d="M508.563 605.057H518.229V590.202H508.563V605.057Z" fill="#F7F7FF"/>
<path d="M486.475 605.057H496.137V590.202H486.475V605.057Z" fill="#F7F7FF"/>
<path d="M530.655 632.498H540.322V617.642H530.655V632.498Z" fill="#F7F7FF"/>
<path d="M508.563 632.498H518.229V617.642H508.563V632.498Z" fill="#F7F7FF"/>
<path d="M486.475 632.498H496.137V617.642H486.475V632.498Z" fill="#F7F7FF"/>
<path d="M0 620.24V794.12H1440V674.799H1392.42C1388.48 674.799 1385.28 677.996 1385.28 681.938V702.111C1385.28 706.049 1382.09 709.226 1378.14 709.226H1370.39C1366.43 709.226 1363.25 706.049 1363.25 702.111V572.954C1363.25 569.952 1361.37 567.297 1358.55 566.249L1313.04 549.622C1311.84 549.187 1310.55 549.1 1309.33 549.315C1308.37 549.485 1307.45 549.837 1306.62 550.379L1273.51 572.378C1271.53 573.708 1270.33 575.928 1270.33 578.296V592.965C1270.33 593.967 1270.13 594.903 1269.78 595.727C1269.41 596.622 1268.86 597.384 1268.21 598.034C1266.05 600.146 1262.57 600.863 1259.58 599.123L1217.85 574.88C1216.91 574.337 1215.93 574.031 1214.9 573.944C1214.68 573.923 1214.45 573.898 1214.2 573.898H1173.85C1169.9 573.898 1166.68 577.075 1166.68 581.013V626.017C1166.68 626.498 1166.64 626.974 1166.55 627.409C1166.53 627.583 1166.48 627.736 1166.44 627.91C1166.38 628.171 1166.29 628.432 1166.18 628.672C1166.11 628.846 1166.05 629.02 1165.94 629.194C1165.05 631.045 1163.38 632.329 1161.48 632.871C1161.31 632.917 1161.11 632.963 1160.94 633.004C1158.66 633.526 1156.11 632.871 1154.24 630.805L1140.83 616.008C1139.47 614.504 1137.55 613.66 1135.52 613.66H1107.2C1106.96 613.66 1106.72 613.68 1106.48 613.705C1106.24 613.726 1106 613.751 1105.76 613.813C1105.52 613.858 1105.3 613.921 1105.08 613.987C1104.84 614.074 1104.63 614.14 1104.41 614.248C1104.12 614.355 1103.88 614.492 1103.64 614.616C1103.6 614.637 1103.53 614.662 1103.49 614.703C1103.25 614.856 1103.01 615.006 1102.79 615.184C1102.52 615.399 1102.31 615.577 1102.11 615.813C1101.85 616.033 1101.63 616.314 1101.42 616.596L1082.9 642.057C1082.44 642.666 1082.11 643.341 1081.87 644.037C1081.65 644.732 1081.52 645.474 1081.52 646.236V693.48C1081.52 700.094 1073.27 703.142 1068.94 698.115L1055.66 682.642C1054.31 681.052 1052.32 680.141 1050.23 680.141H995.765C991.813 680.141 988.601 676.944 988.601 673.026V611.875C988.601 607.957 985.413 604.76 981.461 604.76H946.98C945.758 604.76 944.578 605.066 943.51 605.65L927.742 614.335C922.98 616.969 917.128 613.531 917.128 608.11V568.875C917.128 566.46 915.906 564.195 913.874 562.891L863.231 530.29C861.178 528.985 859.956 526.72 859.956 524.305V507.417C859.956 503.478 856.769 500.302 852.817 500.302H849.824C845.959 500.302 842.772 497.192 842.685 493.34V482.569C842.685 478.61 839.451 475.408 835.458 475.454L788.418 475.934C784.486 475.98 781.34 479.156 781.34 483.049V492.583C781.34 493.585 781.12 494.541 780.729 495.411C779.636 497.937 777.126 499.697 774.201 499.697C772.214 499.697 770.423 500.501 769.135 501.785C767.846 503.068 767.04 504.853 767.04 506.833V632.66C767.04 636.599 763.852 639.775 759.9 639.775H714.631C711.551 639.775 708.954 637.862 707.948 635.141C707.641 634.379 707.491 633.53 707.491 632.66V580.433C707.491 576.495 704.283 573.294 700.351 573.294H675.915C671.963 573.294 668.775 570.117 668.775 566.179V531.752C668.775 527.813 665.567 524.637 661.635 524.637H574.063C573.083 524.637 572.164 524.831 571.312 525.204C568.736 526.268 566.924 528.795 566.924 531.756V537.111C566.924 541.028 563.736 544.225 559.784 544.225H556.202C552.249 544.225 549.062 547.423 549.062 551.34V638.408C549.062 640.106 548.538 641.564 547.665 642.695C545.982 644.935 542.99 645.958 540.285 645.37C538.514 644.977 536.835 643.892 535.742 641.999L524.322 622.543C523.055 620.369 520.719 619.039 518.209 619.019H482.984C482.045 619.019 481.151 619.192 480.32 619.54C478.836 620.128 477.548 621.218 476.738 622.675L462.978 647.267C459.877 652.816 452.123 651.686 450.095 646.505C449.766 645.701 449.592 644.807 449.592 643.805V603.285C449.592 599.347 446.383 596.171 442.452 596.171H441.646C440.357 596.171 439.156 595.823 438.109 595.214C435.969 593.996 434.506 591.69 434.506 589.035V579.241C434.506 575.302 431.298 572.126 427.366 572.126H406.708C402.755 572.126 399.568 575.302 399.568 579.241V589.035C399.568 592.973 396.359 596.175 392.428 596.175H391.817C387.886 596.175 384.677 599.351 384.677 603.29V678.957C384.677 682.895 381.49 686.092 377.538 686.092H360.262C356.31 686.092 353.122 682.895 353.122 678.957V604.292C353.122 602.681 352.553 601.115 351.551 599.852L320.125 560.571C318.749 558.873 316.696 557.871 314.535 557.871H255.443C251.491 557.871 248.278 554.695 248.278 550.756V490.214C248.278 486.275 245.091 483.099 241.139 483.099H158.35C154.398 483.099 151.185 486.275 151.185 490.214V637.998C151.185 641.937 147.998 645.138 144.046 645.138H86.9818C85.3652 645.138 83.8608 644.596 82.6348 643.66C81.6083 642.877 80.7771 641.833 80.2992 640.57L67.1543 606.383C66.0862 603.621 63.4182 601.811 60.4717 601.811H12.8623C10.0239 601.811 7.46805 603.464 6.31273 606.031L0 620.244V620.24Z" fill="#D6D6FF"/>
<path d="M707.923 686.895V845.866H767.015V684.415C767.015 688.353 763.828 691.529 759.876 691.529H714.606C711.526 691.529 708.929 689.616 707.923 686.895Z" fill="#BEBEFF"/>
<path d="M352.336 894.746H384.81L384.635 730.706C384.635 734.645 381.448 737.842 377.495 737.842H360.22C356.267 737.842 353.08 734.645 353.08 730.706L352.336 894.746Z" fill="#BEBEFF"/>
<path d="M1081.85 695.794V884.098H1166.67V677.775C1166.67 684.302 1158.62 687.395 1154.23 682.563L1140.82 667.765C1139.47 666.262 1137.55 665.417 1135.51 665.417H1107.19C1104.9 665.417 1102.76 666.506 1101.4 668.353L1082.88 693.815C1082.43 694.423 1082.1 695.098 1081.86 695.794H1081.85Z" fill="#BEBEFF"/>
<path d="M82.6348 695.405V884.102H151.14V689.748C151.14 693.686 147.952 696.888 144 696.888H86.9818C85.3652 696.888 83.8607 696.345 82.6348 695.409V695.405Z" fill="#BEBEFF"/>
<path d="M1217.84 626.637V847.608H1269.77V647.485C1269.4 648.38 1268.85 649.142 1268.2 649.792C1266.04 651.904 1262.57 652.62 1259.57 650.881L1217.84 626.637Z" fill="#BEBEFF"/>
<path d="M855.285 720.026C855.426 698.528 855.513 677.034 855.58 655.537C855.65 634.192 854.138 611.932 857.201 590.766C857.346 589.759 859.096 589.759 859.241 590.766C862.308 611.932 860.791 634.188 860.862 655.537C860.933 677.034 861.02 698.528 861.157 720.026C861.444 764.206 863.842 809.235 860.405 853.303C860.185 856.099 856.257 856.103 856.037 853.303C852.596 809.239 854.998 764.202 855.285 720.026Z" fill="#BEBEFF"/>
<path d="M455.526 788.603C455.559 764.032 454.558 739.055 457.516 714.63C457.67 713.362 459.341 713.362 459.495 714.63C462.454 739.06 461.452 764.028 461.485 788.603C461.514 811.393 464.374 836.349 460.135 858.799C459.831 860.406 457.18 860.406 456.876 858.799C452.633 836.328 455.497 811.418 455.526 788.603Z" fill="#BEBEFF"/>
<path d="M246.471 790.193C247.231 770.969 249.172 695.467 249.467 676.943C249.75 659.147 248.761 640.718 251.242 623.072C251.462 621.511 254.171 621.515 254.4 623.072C257.097 641.364 255.929 660.63 255.83 679.08C255.73 697.604 255.456 716.129 255.023 734.645C254.167 771.3 255.68 810.03 248.91 846.155C248.54 848.131 245.735 847.484 245.594 845.708C244.131 827.258 245.743 808.655 246.475 790.193H246.471Z" fill="#BEBEFF"/>
<path d="M227.28 564.07H236.942V549.215H227.28V564.07Z" fill="#BEBEFF"/>
<path d="M205.187 564.07H214.849V549.215H205.187V564.07Z" fill="#BEBEFF"/>
<path d="M183.086 564.07H192.752V549.215H183.086V564.07Z" fill="#BEBEFF"/>
<path d="M160.997 564.07H170.66V549.215H160.997V564.07Z" fill="#BEBEFF"/>
<path d="M227.28 592.219H236.942V577.363H227.28V592.219Z" fill="#BEBEFF"/>
<path d="M205.187 592.219H214.849V577.363H205.187V592.219Z" fill="#BEBEFF"/>
<path d="M183.086 592.219H192.752V577.363H183.086V592.219Z" fill="#BEBEFF"/>
<path d="M160.997 592.219H170.66V577.363H160.997V592.219Z" fill="#BEBEFF"/>
<path d="M227.28 620.372H236.942V605.521H227.28V620.372Z" fill="#BEBEFF"/>
<path d="M205.187 620.372H214.849V605.521H205.187V620.372Z" fill="#BEBEFF"/>
<path d="M183.086 620.372H192.752V605.521H183.086V620.372Z" fill="#BEBEFF"/>
<path d="M160.997 620.372H170.66V605.521H160.997V620.372Z" fill="#BEBEFF"/>
<path d="M227.28 648.525H236.942V633.67H227.28V648.525Z" fill="#BEBEFF"/>
<path d="M205.187 648.525H214.849V633.67H205.187V648.525Z" fill="#BEBEFF"/>
<path d="M183.086 648.525H192.752V633.67H183.086V648.525Z" fill="#BEBEFF"/>
<path d="M160.997 648.525H170.66V633.67H160.997V648.525Z" fill="#BEBEFF"/>
<path d="M227.28 676.674H236.942V661.819H227.28V676.674Z" fill="#BEBEFF"/>
<path d="M205.187 676.674H214.849V661.819H205.187V676.674Z" fill="#BEBEFF"/>
<path d="M183.086 676.674H192.752V661.819H183.086V676.674Z" fill="#BEBEFF"/>
<path d="M160.997 676.674H170.66V661.819H160.997V676.674Z" fill="#BEBEFF"/>
<path d="M227.28 704.827H236.942V689.972H227.28V704.827Z" fill="#BEBEFF"/>
<path d="M205.187 704.827H214.849V689.972H205.187V704.827Z" fill="#BEBEFF"/>
<path d="M183.086 704.827H192.752V689.972H183.086V704.827Z" fill="#BEBEFF"/>
<path d="M160.997 704.827H170.66V689.972H160.997V704.827Z" fill="#BEBEFF"/>
<path d="M227.28 732.98H236.942V718.125H227.28V732.98Z" fill="#BEBEFF"/>
<path d="M205.187 732.98H214.849V718.125H205.187V732.98Z" fill="#BEBEFF"/>
<path d="M183.086 732.98H192.752V718.125H183.086V732.98Z" fill="#BEBEFF"/>
<path d="M160.997 732.98H170.66V718.125H160.997V732.98Z" fill="#BEBEFF"/>
<path d="M227.28 761.128H236.942V746.273H227.28V761.128Z" fill="#BEBEFF"/>
<path d="M205.187 761.128H214.849V746.273H205.187V761.128Z" fill="#BEBEFF"/>
<path d="M183.086 761.128H192.752V746.273H183.086V761.128Z" fill="#BEBEFF"/>
<path d="M424.897 674.777H434.563V659.922H424.897V674.777Z" fill="#BEBEFF"/>
<path d="M402.801 674.777H412.467V659.922H402.801V674.777Z" fill="#BEBEFF"/>
<path d="M424.897 697.174H434.563V682.319H424.897V697.174Z" fill="#BEBEFF"/>
<path d="M402.801 697.174H412.467V682.319H402.801V697.174Z" fill="#BEBEFF"/>
<path d="M424.897 719.57H434.563V704.715H424.897V719.57Z" fill="#BEBEFF"/>
<path d="M402.801 719.57H412.467V704.715H402.801V719.57Z" fill="#BEBEFF"/>
<path d="M424.897 741.967H434.563V727.112H424.897V741.967Z" fill="#BEBEFF"/>
<path d="M402.801 741.967H412.467V727.112H402.801V741.967Z" fill="#BEBEFF"/>
<path d="M424.897 764.363H434.563V749.508H424.897V764.363Z" fill="#BEBEFF"/>
<path d="M402.801 764.363H412.467V749.508H402.801V764.363Z" fill="#BEBEFF"/>
<path d="M424.897 786.764H434.563V771.909H424.897V786.764Z" fill="#BEBEFF"/>
<path d="M402.801 786.764H412.467V771.909H402.801V786.764Z" fill="#BEBEFF"/>
<path d="M424.897 809.161H434.563V794.306H424.897V809.161Z" fill="#BEBEFF"/>
<path d="M402.801 809.161H412.467V794.306H402.801V809.161Z" fill="#BEBEFF"/>
<path d="M424.897 831.557H434.563V816.702H424.897V831.557Z" fill="#BEBEFF"/>
<path d="M402.801 831.557H412.467V816.702H402.801V831.557Z" fill="#BEBEFF"/>
<path d="M160.997 761.128H170.66V746.273H160.997V761.128Z" fill="#BEBEFF"/>
<path d="M227.28 760.421H236.942V745.566H227.28V760.421Z" fill="#BEBEFF"/>
<path d="M205.187 760.421H214.849V745.566H205.187V760.421Z" fill="#BEBEFF"/>
<path d="M183.086 760.421H192.752V745.566H183.086V760.421Z" fill="#BEBEFF"/>
<path d="M160.997 760.421H170.66V745.566H160.997V760.421Z" fill="#BEBEFF"/>
<path d="M227.28 788.574H236.942V773.719H227.28V788.574Z" fill="#BEBEFF"/>
<path d="M205.187 788.574H214.849V773.719H205.187V788.574Z" fill="#BEBEFF"/>
<path d="M183.086 788.574H192.752V773.719H183.086V788.574Z" fill="#BEBEFF"/>
<path d="M160.997 788.574H170.66V773.719H160.997V788.574Z" fill="#BEBEFF"/>
<path d="M644.102 606.651H653.765V591.796H644.102V606.651Z" fill="#BEBEFF"/>
<path d="M622.005 606.651H631.672V591.796H622.005V606.651Z" fill="#BEBEFF"/>
<path d="M599.913 606.651H609.579V591.796H599.913V606.651Z" fill="#BEBEFF"/>
<path d="M577.816 606.651H587.482V591.796H577.816V606.651Z" fill="#BEBEFF"/>
<path d="M644.102 634.804H653.765V619.949H644.102V634.804Z" fill="#BEBEFF"/>
<path d="M622.005 634.804H631.672V619.949H622.005V634.804Z" fill="#BEBEFF"/>
<path d="M599.913 634.804H609.579V619.949H599.913V634.804Z" fill="#BEBEFF"/>
<path d="M577.816 634.804H587.482V619.949H577.816V634.804Z" fill="#BEBEFF"/>
<path d="M644.102 662.954H653.765V648.099H644.102V662.954Z" fill="#BEBEFF"/>
<path d="M622.005 662.954H631.672V648.099H622.005V662.954Z" fill="#BEBEFF"/>
<path d="M599.913 662.954H609.579V648.099H599.913V662.954Z" fill="#BEBEFF"/>
<path d="M577.816 662.954H587.482V648.099H577.816V662.954Z" fill="#BEBEFF"/>
<path d="M644.102 691.107H653.765V676.256H644.102V691.107Z" fill="#BEBEFF"/>
<path d="M622.005 691.107H631.672V676.256H622.005V691.107Z" fill="#BEBEFF"/>
<path d="M599.913 691.107H609.579V676.256H599.913V691.107Z" fill="#BEBEFF"/>
<path d="M577.816 691.107H587.482V676.256H577.816V691.107Z" fill="#BEBEFF"/>
<path d="M644.102 719.26H653.765V704.405H644.102V719.26Z" fill="#BEBEFF"/>
<path d="M622.005 719.26H631.672V704.405H622.005V719.26Z" fill="#BEBEFF"/>
<path d="M599.913 719.26H609.579V704.405H599.913V719.26Z" fill="#BEBEFF"/>
<path d="M577.816 719.26H587.482V704.405H577.816V719.26Z" fill="#BEBEFF"/>
<path d="M644.102 746.7H653.765V731.845H644.102V746.7Z" fill="#BEBEFF"/>
<path d="M622.005 746.7H631.672V731.845H622.005V746.7Z" fill="#BEBEFF"/>
<path d="M599.913 746.7H609.579V731.845H599.913V746.7Z" fill="#BEBEFF"/>
<path d="M577.816 746.7H587.482V731.845H577.816V746.7Z" fill="#BEBEFF"/>
<path d="M1197.15 653.105H1206.82V638.25H1197.15V653.105Z" fill="#BEBEFF"/>
<path d="M1175.06 653.105H1184.73V638.25H1175.06V653.105Z" fill="#BEBEFF"/>
<path d="M1197.15 681.254H1206.82V666.399H1197.15V681.254Z" fill="#BEBEFF"/>
<path d="M1175.06 681.254H1184.73V666.399H1175.06V681.254Z" fill="#BEBEFF"/>
<path d="M1197.15 709.407H1206.82V694.552H1197.15V709.407Z" fill="#BEBEFF"/>
<path d="M1175.06 709.407H1184.73V694.552H1175.06V709.407Z" fill="#BEBEFF"/>
<path d="M1197.15 737.56H1206.82V722.705H1197.15V737.56Z" fill="#BEBEFF"/>
<path d="M1175.06 737.56H1184.73V722.705H1175.06V737.56Z" fill="#BEBEFF"/>
<path d="M1197.15 765.709H1206.82V750.854H1197.15V765.709Z" fill="#BEBEFF"/>
<path d="M1175.06 765.709H1184.73V750.854H1175.06V765.709Z" fill="#BEBEFF"/>
<path d="M1197.15 793.154H1206.82V778.299H1197.15V793.154Z" fill="#BEBEFF"/>
<path d="M1175.06 793.154H1184.73V778.299H1175.06V793.154Z" fill="#BEBEFF"/>
<path d="M1197.15 820.677H1206.82V805.822H1197.15V820.677Z" fill="#BEBEFF"/>
<path d="M1175.06 820.677H1184.73V805.822H1175.06V820.677Z" fill="#BEBEFF"/>
<path d="M1197.15 848.205H1206.82V833.35H1197.15V848.205Z" fill="#BEBEFF"/>
<path d="M1175.06 848.205H1184.73V833.35H1175.06V848.205Z" fill="#BEBEFF"/>
<path d="M967.875 682.906H977.542V668.051H967.875V682.906Z" fill="#BEBEFF"/>
<path d="M945.782 682.907H955.449V668.052H945.782V682.907Z" fill="#BEBEFF"/>
<path d="M967.875 711.06H977.542V696.204H967.875V711.06Z" fill="#BEBEFF"/>
<path d="M945.782 711.06H955.449V696.205H945.782V711.06Z" fill="#BEBEFF"/>
<path d="M967.875 739.213H977.542V724.358H967.875V739.213Z" fill="#BEBEFF"/>
<path d="M945.782 739.213H955.449V724.358H945.782V739.213Z" fill="#BEBEFF"/>
<path d="M967.875 767.361H977.542V752.506H967.875V767.361Z" fill="#BEBEFF"/>
<path d="M945.782 767.361H955.449V752.506H945.782V767.361Z" fill="#BEBEFF"/>
<path d="M967.875 795.515H977.542V780.659H967.875V795.515Z" fill="#BEBEFF"/>
<path d="M945.782 795.514H955.449V780.659H945.782V795.514Z" fill="#BEBEFF"/>
<path d="M644.102 774.849H653.765V759.994H644.102V774.849Z" fill="#BEBEFF"/>
<path d="M622.005 774.849H631.672V759.994H622.005V774.849Z" fill="#BEBEFF"/>
<path d="M599.913 774.849H609.579V759.994H599.913V774.849Z" fill="#BEBEFF"/>
<path d="M577.816 774.849H587.482V759.994H577.816V774.849Z" fill="#BEBEFF"/>
<path d="M644.102 803.002H653.765V788.147H644.102V803.002Z" fill="#BEBEFF"/>
<path d="M622.005 803.002H631.672V788.147H622.005V803.002Z" fill="#BEBEFF"/>
<path d="M599.913 803.002H609.579V788.147H599.913V803.002Z" fill="#BEBEFF"/>
<path d="M828.663 577.31H838.33V562.454H828.663V577.31Z" fill="#BEBEFF"/>
<path d="M806.57 577.31H816.237V562.454H806.57V577.31Z" fill="#BEBEFF"/>
<path d="M784.478 577.31H794.144V562.454H784.478V577.31Z" fill="#BEBEFF"/>
<path d="M828.663 605.459H838.329V590.604H828.663V605.459Z" fill="#BEBEFF"/>
<path d="M806.57 605.459H816.237V590.604H806.57V605.459Z" fill="#BEBEFF"/>
<path d="M784.478 605.459H794.144V590.604H784.478V605.459Z" fill="#BEBEFF"/>
<path d="M828.663 633.608H838.33V618.753H828.663V633.608Z" fill="#BEBEFF"/>
<path d="M806.57 633.608H816.237V618.753H806.57V633.608Z" fill="#BEBEFF"/>
<path d="M784.478 633.608H794.144V618.753H784.478V633.608Z" fill="#BEBEFF"/>
<path d="M828.663 661.765H838.329V646.91H828.663V661.765Z" fill="#BEBEFF"/>
<path d="M806.57 661.765H816.237V646.91H806.57V661.765Z" fill="#BEBEFF"/>
<path d="M784.478 661.765H794.144V646.91H784.478V661.765Z" fill="#BEBEFF"/>
<path d="M828.663 689.913H838.33V675.062H828.663V689.913Z" fill="#BEBEFF"/>
<path d="M806.57 689.913H816.237V675.062H806.57V689.913Z" fill="#BEBEFF"/>
<path d="M784.478 689.913H794.144V675.062H784.478V689.913Z" fill="#BEBEFF"/>
<path d="M828.663 717.355H838.33V702.5H828.663V717.355Z" fill="#BEBEFF"/>
<path d="M806.57 717.355H816.237V702.5H806.57V717.355Z" fill="#BEBEFF"/>
<path d="M784.478 717.355H794.144V702.5H784.478V717.355Z" fill="#BEBEFF"/>
<path d="M828.663 745.508H838.33V730.653H828.663V745.508Z" fill="#BEBEFF"/>
<path d="M806.57 745.508H816.237V730.653H806.57V745.508Z" fill="#BEBEFF"/>
<path d="M784.478 745.508H794.144V730.653H784.478V745.508Z" fill="#BEBEFF"/>
<path d="M828.663 800.36H838.329V785.505H828.663V800.36Z" fill="#BEBEFF"/>
<path d="M806.57 800.36H816.237V785.505H806.57V800.36Z" fill="#BEBEFF"/>
<path d="M784.478 800.36H794.144V785.505H784.478V800.36Z" fill="#BEBEFF"/>
<path d="M828.663 773.656H838.329V758.801H828.663V773.656Z" fill="#BEBEFF"/>
<path d="M806.57 773.656H816.237V758.801H806.57V773.656Z" fill="#BEBEFF"/>
<path d="M784.478 773.656H794.144V758.801H784.478V773.656Z" fill="#BEBEFF"/>
<path d="M577.816 803.002H587.482V788.147H577.816V803.002Z" fill="#BEBEFF"/>
<path d="M0 766.454V910.801C2.85922 911.911 5.84727 912.781 8.79377 913.564C32.4987 919.854 56.694 922.811 81.1055 924.095C83.8068 924.236 86.4457 924.356 89.1262 924.443C110.683 925.143 132.347 924.53 154.036 923.553C162.498 923.184 224.133 920.177 228.563 920.049C258.892 919.113 289.222 919.134 319.547 919.875C327.456 920.07 335.364 920.31 343.273 920.616C363.1 921.312 419.882 924.555 423.115 924.774C427.079 925.015 495.559 930.129 519.306 932.109C519.393 932.129 519.46 932.129 519.551 932.129C525.265 932.61 638.649 942.073 643.769 942.466C696.407 946.517 749.045 949.78 801.704 950.844C804.605 950.89 813.004 951.018 814.288 951.039C837.195 951.345 860.102 951.213 883.009 950.496C889.833 950.302 919.564 948.952 926.741 948.496C934.961 948.016 943.156 947.452 951.377 946.844C951.464 946.844 951.555 946.823 951.643 946.823C971.117 945.386 1019.85 941.211 1024.77 940.793C1073.69 936.668 1122.54 932.937 1171.47 933.459C1177.17 933.504 1192.94 933.96 1195.13 934.047C1220.23 935.024 1245.38 937.029 1270.46 937.376C1273.62 937.397 1276.77 937.43 1279.92 937.422C1291.92 937.389 1303.87 936.855 1315.81 935.616C1348.31 932.22 1381.27 922.559 1407.41 903.91C1415.24 898.34 1422.46 891.962 1428.86 884.694C1432.98 880.014 1436.68 875.074 1440 869.939V674.93C1429.26 676.342 1417.71 681.456 1407.74 684.832C1404.95 685.768 1402.18 686.745 1399.43 687.768C1394.45 689.553 1389.51 691.466 1384.59 693.45C1384.04 693.665 1383.51 693.885 1382.95 694.125C1381.96 694.518 1380.98 694.908 1379.99 695.322C1364.54 701.699 1349.39 708.707 1334.22 715.693C1332.02 716.695 1329.83 717.693 1327.64 718.696C1315.3 724.332 1302.92 729.882 1290.35 734.951C1289.62 735.257 1288.87 735.559 1288.14 735.845C1282.13 738.26 1276.09 740.546 1269.99 742.658C1268.11 743.333 1266.23 743.987 1264.34 744.596C1260.49 745.88 1256.62 747.097 1252.69 748.253C1250.06 749.035 1247.42 749.744 1244.76 750.452C1244.12 750.621 1243.5 750.8 1242.86 750.953C1242.51 751.061 1242.15 751.143 1241.77 751.234C1241.53 751.297 1241.29 751.367 1241.04 751.408C1239.21 751.889 1237.32 752.344 1235.46 752.779C1233.05 753.346 1230.63 753.889 1228.19 754.39C1227.91 754.456 1227.64 754.523 1227.35 754.585C1224.59 755.177 1221.81 755.695 1219.04 756.196C1218.31 756.349 1217.58 756.465 1216.83 756.589C1207.36 758.122 1197.89 759.654 1188.36 760.615C1186.74 760.776 1185.15 760.942 1183.55 761.07C1169.9 762.375 1156.17 763.05 1142.43 763.29C1140.4 763.311 1037.67 761.898 1036.05 761.898C1014.83 761.853 993.583 762.159 971.94 763.162C953.775 763.99 935.609 764.818 917.506 766.471C917.461 766.45 917.44 766.45 917.394 766.471C917.174 766.491 916.929 766.491 916.709 766.537C916.596 766.537 916.509 766.537 916.397 766.557C912.719 766.885 909.087 767.253 905.43 767.667C901.972 768.061 856.648 774.281 851.62 774.915C829.598 777.677 807.356 779.636 784.981 781.032C782.699 781.185 739.059 783.284 727.58 783.578C726.604 783.603 720.337 783.773 718.163 783.819C718.009 783.839 717.876 783.839 717.718 783.839C705.579 784.121 679.435 784.494 678.508 784.514C678.375 784.494 678.242 784.514 678.088 784.514C677.423 784.514 447.622 784.382 440.844 784.208C437.585 784.142 20.4758 766.234 15.4888 766.036C10.3481 765.841 5.05351 765.688 0.00415584 766.471L0 766.454Z" fill="#B0B0F7"/>
<path d="M1247.62 640.259C1245.36 652.898 1249.11 666.465 1257.56 676.135C1263.78 683.254 1272.27 688.278 1277.75 695.973C1283.62 704.222 1285.53 714.841 1291.68 722.891C1301.71 736.024 1320.46 739.072 1336.94 737.328C1358.19 735.092 1380.84 724.374 1387.64 704.197C1393.06 688.096 1387.13 670.652 1386.45 653.681C1385.92 640.213 1388.89 626.625 1394.87 614.52C1400.76 602.572 1406.84 596.286 1404.93 582.064C1402.61 564.956 1386.81 552.772 1381.25 536.435C1377.2 524.586 1378.93 511.653 1378.02 499.154C1376.67 480.365 1368.43 461.397 1354.68 449.47C1346.08 442.016 1335.32 437.344 1322.74 437.187C1296.22 436.872 1265.01 447.176 1262.86 478.542C1262.27 487.264 1263.78 496.164 1261.67 504.65C1256.83 524.288 1238.65 538.907 1238.23 559.854C1237.85 579.078 1254.39 593.875 1254.07 613.037C1254.01 616.814 1253.22 620.475 1252.18 624.116C1250.65 629.475 1248.59 634.775 1247.62 640.255V640.259Z" fill="#8989E6"/>
<path d="M1079.63 733.411C1084.85 737.942 1092.79 738.911 1097.1 744.328C1100.61 748.717 1100.71 754.851 1102.65 760.131C1107.18 772.514 1123.42 778.999 1135.26 773.205C1143.38 769.25 1147.81 764.243 1157.32 764.206C1165.53 764.169 1169.24 767.527 1176.17 762.09C1187.11 753.526 1194.49 735.014 1190.82 721.662C1188.62 713.69 1183.48 706.649 1182.27 698.483C1179.41 679.118 1199.26 661.753 1196.36 642.408C1194.28 628.564 1181.42 619.167 1174.75 606.867C1166.49 591.697 1168.2 573.364 1166.03 556.235C1164.9 547.335 1161.82 537.88 1156.68 530.542C1151.96 523.738 1145.49 518.772 1137.23 517.724C1124.35 516.122 1112.03 525.477 1106.47 537.168C1100.91 548.859 1100.81 562.348 1101.79 575.244C1102.56 585.527 1103.75 596.626 1098.35 605.405C1095.77 609.638 1091.88 612.864 1088.49 616.479C1079.85 625.657 1074.18 638.967 1078.25 650.857C1080.11 656.278 1083.84 660.966 1085.41 666.462C1086.34 669.725 1086.5 673.009 1086.11 676.272C1085.15 684.439 1080.94 692.569 1077.63 700.326C1072.99 711.226 1070.67 725.642 1079.63 733.415L1079.63 733.411Z" fill="#8989E6"/>
<path d="M1078.24 650.857C1080.11 656.278 1083.84 660.966 1085.41 666.461C1086.34 669.725 1086.5 673.009 1086.1 676.272C1086.46 675.796 1086.82 675.282 1087.13 674.748C1092.37 666.084 1090.21 655.068 1091.5 645.021C1092.49 637.368 1095.65 629.988 1100.49 623.938C1106.64 616.284 1115.57 610.586 1119.42 601.549C1124.51 589.585 1119.19 575.422 1123.03 563.002C1125.16 556.139 1130.16 550.184 1136.59 546.9C1142.55 543.856 1149.95 542.767 1154.06 537.487C1155.62 535.47 1156.46 533.055 1156.68 530.546C1151.95 523.741 1145.48 518.776 1137.23 517.728C1124.34 516.125 1112.02 525.481 1106.46 537.172C1100.9 548.863 1100.8 562.351 1101.78 575.248C1102.55 585.531 1103.74 596.63 1098.34 605.409C1095.76 609.642 1091.87 612.868 1088.48 616.483C1079.85 625.661 1074.17 638.971 1078.24 650.861L1078.24 650.857Z" fill="#9A9AE6"/>
<path d="M1254.07 613.042C1254.01 616.819 1253.22 620.48 1252.18 624.12C1253.97 623.428 1255.63 622.397 1257.04 621.113C1262.58 615.99 1264.47 607.923 1264.21 600.386C1263.95 592.848 1261.88 585.493 1260.8 578.035C1259.7 570.58 1259.7 562.587 1263.26 555.94C1268 547.099 1278.18 542.154 1282.75 533.233C1289.58 519.944 1281.65 502.794 1287.97 489.244C1293.82 476.683 1309.2 472.252 1322.86 469.721C1334.55 467.526 1348.05 464.462 1353.19 453.76C1353.88 452.278 1354.38 450.853 1354.68 449.47C1346.08 442.016 1335.32 437.344 1322.74 437.187C1296.22 436.872 1265.01 447.176 1262.86 478.542C1262.27 487.264 1263.78 496.164 1261.67 504.65C1256.83 524.288 1238.65 538.907 1238.23 559.854C1237.85 579.078 1254.39 593.875 1254.07 613.037V613.042Z" fill="#9A9AE6"/>
<path d="M1323.13 797.842C1337.7 796.496 1352.75 797.502 1367.37 797.535C1380.33 797.564 1395.53 795.655 1407.99 799.461C1408.8 799.709 1408.8 800.852 1407.99 801.101C1395.57 804.898 1380.28 802.998 1367.37 803.027C1352.74 803.06 1337.7 804.07 1323.13 802.72C1319.99 802.43 1319.98 798.127 1323.13 797.837V797.842Z" fill="#9696D2"/>
<path d="M1139.41 804.092C1152.42 799.979 1169.33 802.762 1182.92 802.799C1196.22 802.837 1213.6 800.215 1226.14 805.094C1226.68 805.305 1226.68 805.984 1226.14 806.195C1213.53 811.099 1196.3 808.452 1182.92 808.486C1169.41 808.523 1152.35 811.281 1139.41 807.193C1137.88 806.709 1137.88 804.58 1139.41 804.096V804.092Z" fill="#9696D2"/>
<path d="M1111.98 629.677C1116.34 632.423 1120.64 635.256 1124.95 638.089C1124.82 631.193 1124.37 623.793 1126.05 617.311C1126.29 616.371 1127.72 616.367 1127.96 617.311C1129.85 624.65 1129.04 633.152 1129.04 640.764C1132.4 642.926 1135.94 644.988 1139.12 647.436C1139.12 631.023 1138.18 613.965 1140.82 597.756C1140.99 596.725 1142.75 596.725 1142.92 597.756C1145.63 614.379 1144.57 631.856 1144.62 648.653C1144.66 662.543 1144.65 676.434 1144.65 690.328C1147.67 687.549 1150.77 684.845 1153.87 682.165C1157.42 679.088 1160.89 675.506 1165.11 673.365C1166 672.913 1167.15 673.862 1166.55 674.802C1164.03 678.773 1160.19 681.867 1156.8 685.089C1153.02 688.68 1149.25 692.316 1145.29 695.703C1145.08 695.877 1144.87 695.997 1144.65 696.089C1144.65 698.445 1144.63 739.49 1144.61 757.658C1144.59 774.369 1145.57 791.535 1144.08 808.233C1142.6 808.183 1141.13 808.195 1139.66 808.262C1138.17 791.547 1139.14 774.385 1139.13 757.654C1139.1 739.486 1139.07 669.43 1139.12 652.571C1134.36 650.388 1130.08 647.162 1125.7 644.33C1120.31 640.838 1114.9 637.376 1109.57 633.782C1107.05 632.079 1109.36 628.021 1111.98 629.673L1111.98 629.677Z" fill="#7474CD"/>
<path d="M1302.64 577.127C1309.93 584.3 1318.02 592.015 1324.39 600.497C1324.53 581.902 1325.26 563.365 1327.38 545.089C1327.48 544.257 1328.59 544.253 1328.68 545.089C1333.39 585.555 1331.27 627.296 1330.99 668.142C1335.33 663.214 1339.83 658.439 1344.54 653.846C1349.1 649.402 1354.94 641.948 1361.48 640.759C1361.71 640.718 1361.99 640.912 1361.9 641.178C1359.73 647.443 1352.12 652.194 1347.53 656.824C1341.74 662.659 1336.25 668.772 1330.96 675.058C1330.96 675.708 1330.99 762.988 1330.97 773.49C1330.95 782.357 1331.66 791.65 1330.67 800.558C1328.91 800.475 1327.14 800.393 1325.37 800.339C1324.5 792.13 1325.1 783.641 1325.09 775.457C1325.06 764.955 1324.37 631.292 1324.36 608.32C1315.67 599.437 1308.12 589.286 1299.24 580.515C1297.04 578.341 1300.43 574.957 1302.64 577.127H1302.64Z" fill="#7474CD"/>
<path d="M1378.97 568.041C1379.05 567.254 1380.09 566.856 1380.53 567.618C1383.68 572.99 1384.32 580.626 1382.54 586.47C1382.22 587.509 1380.55 587.634 1380.29 586.47C1379.06 580.755 1378.43 573.897 1378.97 568.041H1378.97Z" fill="#9A9AE6"/>
<path d="M1364.71 593.593C1365.32 590.669 1365.37 587.539 1364.97 584.578C1364.75 582.95 1367.17 581.43 1367.98 583.314C1369.4 586.661 1369.97 589.895 1369.48 593.531C1369.13 596.161 1368.44 599.797 1365.35 600.195C1364.94 600.248 1364.56 599.93 1364.34 599.623C1363.09 597.776 1364.29 595.577 1364.7 593.597L1364.71 593.593Z" fill="#9A9AE6"/>
<path d="M1363.03 552.039C1362.93 549.202 1361.83 546.133 1362.55 543.362C1362.76 542.584 1363.66 542.476 1364.21 542.928C1366.67 544.911 1367.09 548.788 1367.45 551.745C1367.84 555.024 1367.88 558.536 1365.83 561.27C1365.18 562.135 1363.79 562.11 1363.45 560.959C1362.59 558.023 1363.13 555.058 1363.03 552.039H1363.03Z" fill="#9A9AE6"/>
<path d="M1340.61 538.629C1340.87 537.391 1342.94 537.027 1343.48 538.257C1344.59 540.812 1344.79 543.603 1345.16 546.349C1345.51 548.867 1346.44 551.724 1345.04 554.006C1344.5 554.888 1343.18 555.133 1342.43 554.342C1340.63 552.441 1340.86 549.687 1340.68 547.198C1340.47 544.361 1340.03 541.441 1340.61 538.634V538.629Z" fill="#9A9AE6"/>
<path d="M1350.59 510.149C1351.34 514.116 1352.04 518.134 1352.33 522.163C1352.46 524.006 1353.41 528.976 1350.38 529.41C1348.15 529.729 1347.65 527.149 1347.53 525.551C1347.18 520.78 1347.15 516.034 1346.47 511.284C1346.09 508.633 1350.08 507.411 1350.59 510.149Z" fill="#9A9AE6"/>
<path d="M1360.49 489.127C1364.37 495.53 1366.46 503.742 1364.88 511.168C1364.56 512.675 1362.21 512.638 1361.86 511.168C1360.25 504.281 1359.44 497.091 1358.11 490.125C1357.84 488.721 1359.69 487.81 1360.49 489.127Z" fill="#9A9AE6"/>
<path d="M1371.9 688.216C1372.12 685.631 1372.07 682.993 1371.9 680.409C1371.79 678.641 1374.28 678.533 1374.83 680.016C1376.64 684.99 1377.4 692.212 1374.11 696.776C1373.15 698.093 1370.96 697.708 1370.93 695.919C1370.89 693.343 1371.69 690.787 1371.91 688.216H1371.9Z" fill="#9A9AE6"/>
<path d="M1356.04 664.932C1356.68 670.092 1357.89 675.633 1356.92 680.814C1356.72 681.916 1354.86 682.214 1354.4 681.141C1352.23 676.155 1352.16 670.266 1351.6 664.932C1351.31 662.087 1355.69 662.162 1356.04 664.932H1356.04Z" fill="#9A9AE6"/>
<path d="M1352.06 717.664C1352.72 714.475 1353.99 711.473 1354.86 708.338C1355.73 705.195 1355.93 701.96 1356.7 698.804C1357.12 697.065 1359.71 697.131 1360.17 698.804C1361.97 705.335 1359.84 714.591 1354.81 719.259C1353.58 720.406 1351.74 719.259 1352.07 717.664H1352.06Z" fill="#9A9AE6"/>
<path d="M1174.82 735.953C1174.98 733.584 1174.89 731.195 1175.09 728.834C1175.25 726.979 1177.67 726.635 1178.32 728.399C1179.82 732.483 1180.51 739.643 1177.57 743.192C1176.72 744.215 1175.16 743.536 1174.8 742.464C1174.11 740.426 1174.68 738.074 1174.82 735.953Z" fill="#9A9AE6"/>
<path d="M1158.73 722.138C1158.79 718.651 1158.65 715.143 1158.5 711.661C1158.43 710.248 1160.32 710.236 1160.78 711.354C1163.08 716.92 1165.54 727.224 1161.47 732.43C1160.64 733.502 1159.11 732.715 1158.72 731.705C1157.61 728.764 1158.68 725.24 1158.73 722.138H1158.73Z" fill="#9A9AE6"/>
<path d="M1170.37 704.392C1170.57 701.659 1170.6 698.917 1170.7 696.18C1170.75 694.809 1172.7 694.515 1173.11 695.857C1173.96 698.664 1174.35 701.46 1174.43 704.396C1174.5 706.744 1174.6 709.544 1172.7 711.2C1172.13 711.693 1171.36 711.598 1170.94 710.977C1169.63 709.026 1170.2 706.628 1170.37 704.4V704.392Z" fill="#9A9AE6"/>
<path d="M1181.08 635.008C1181.19 633.997 1182.31 633.417 1183.12 634.167C1187.62 638.329 1186.9 647.183 1183.54 651.735C1182.91 652.584 1181.42 652.372 1181.43 651.163C1181.44 648.459 1181.65 645.763 1181.63 643.058C1181.61 640.383 1180.79 637.646 1181.07 635.003L1181.08 635.008Z" fill="#9A9AE6"/>
<path d="M1164.56 647.079C1164.78 644.383 1164.87 641.658 1164.94 638.958C1164.99 637.277 1167.17 637.132 1167.74 638.581C1168.89 641.509 1169.45 644.429 1169.45 647.589C1169.44 650.214 1169.51 653.059 1167.21 654.679C1166.4 655.254 1165.29 654.778 1164.8 654.045C1163.42 652.028 1164.37 649.374 1164.56 647.079Z" fill="#9A9AE6"/>
<path d="M1160.37 608.242C1164.46 611.39 1166.16 619.913 1163.38 624.282C1162.64 625.441 1160.9 625.214 1160.49 623.905C1159.75 621.544 1159.95 619.089 1159.76 616.649C1159.57 614.169 1158.61 611.646 1158.74 609.174C1158.77 608.449 1159.67 607.7 1160.37 608.238L1160.37 608.242Z" fill="#9A9AE6"/>
<path d="M1156.87 567.876C1158.54 571.98 1160.85 577.637 1158.91 581.973C1158.22 583.514 1156.17 582.793 1155.68 581.551C1154.95 579.679 1155.23 577.496 1155.08 575.504C1154.9 573.189 1154.69 570.883 1154.12 568.63C1153.67 566.807 1156.2 566.215 1156.88 567.872L1156.87 567.876Z" fill="#9A9AE6"/>
<path d="M0 730.702V857.486C11.9023 857.225 23.7797 856.376 35.6821 855.373C38.0177 855.179 40.3782 854.98 42.7138 854.765C65.4047 852.785 88.1164 850.545 110.849 851.108C116.987 851.261 123.079 851.609 129.172 852.11C131.508 852.284 133.847 852.503 136.183 852.74C146.577 853.783 156.929 855.22 167.26 856.765C168.395 856.918 215.04 863.838 220.634 864.513C223.975 864.928 231.53 865.797 231.967 865.818C240.199 866.733 248.432 867.537 256.665 868.191C258.215 868.323 259.744 868.452 261.274 868.56C286.059 870.473 310.89 871.347 335.742 871.148C341.619 871.127 347.491 871.04 353.367 870.887C356.709 870.8 361.471 871.04 366.886 871.235C367.476 871.256 368.087 871.276 368.698 871.301C372.825 871.45 377.238 871.583 381.648 871.516C383.219 871.496 384.769 871.45 386.298 871.388C389.922 871.235 393.463 870.928 396.738 870.365C397.831 870.175 398.857 869.972 399.859 869.736C405.315 868.456 409.729 866.385 412.11 863.056C415.277 858.595 415.057 852.826 413.137 847.277C410.888 840.638 406.259 834.327 402.086 830.869C401.866 830.695 401.65 830.5 401.409 830.347C401.147 830.132 400.885 829.933 400.603 829.738C397.02 827.15 393.068 825.692 388.921 824.864C387.566 824.582 386.19 824.363 384.794 824.21C377.675 823.381 370.198 823.655 363.001 823.079C362.651 823.05 362.282 823.013 361.908 822.971C361.646 822.951 361.405 822.901 361.143 822.864C358.18 822.433 355.266 821.861 352.495 820.839C349.918 819.882 347.491 818.54 345.135 816.813C344.918 816.656 344.698 816.486 344.478 816.312C340.742 813.285 338.016 809.284 335.173 805.387C333.361 802.886 331.524 800.426 329.322 798.293C318.579 787.869 301.98 786.801 287.019 787.608C275.25 788.238 262.974 789.567 251.686 787.041C249.438 786.54 247.21 785.89 245.049 785.041C244.875 784.974 244.721 784.912 244.546 784.846C243.927 784.597 243.3 784.324 242.689 784.042C238.342 782.017 234.581 779.392 231.269 776.273C229.211 774.339 227.358 772.269 225.612 770.094C224.719 768.964 223.842 767.788 223.015 766.57C219.042 760.913 215.701 754.581 212.422 748.095C212.073 747.42 205.698 734.777 205.195 733.862C204.322 732.209 203.424 730.577 202.51 728.987C200.827 726.092 199.061 723.264 197.137 720.588C195.761 718.65 194.319 716.778 192.748 714.993C191.655 713.73 190.5 712.513 189.299 711.337C187.354 709.465 185.28 707.746 183.098 706.201C175.148 700.523 165.673 696.974 155.931 696.105C154.315 695.951 152.744 695.885 151.148 695.885C136.453 695.798 122.103 700.979 107.844 705.307C106.161 705.808 104.503 706.284 102.845 706.765C99.4369 707.721 95.9418 708.591 92.3844 709.245C89.1512 709.9 85.8971 710.376 82.6431 710.637C71.0691 711.593 59.6031 710.028 50.2566 703.435C44.293 699.236 38.6618 692.878 31.3683 693.404C24.4904 693.926 19.7278 700.54 17.2177 706.938C14.6826 713.358 13.1782 720.497 8.39481 725.438C6.03844 727.898 3.15429 729.53 0.00831169 730.706L0 730.702Z" fill="#8989E6"/>
<path d="M107.836 705.307C114.735 706.657 122.664 705.874 129.85 706.33C153.455 707.874 173.374 725.74 184.512 746.546C190.101 756.97 194.053 768.396 201.26 777.776C216.524 797.58 243.121 804.501 267.973 807.83C285.86 810.224 305.534 812.183 318.114 825.067C326.126 833.291 328.399 846.631 337.438 853.356C346.872 860.384 357.615 863.954 366.874 871.243C383.252 871.897 405.528 872.307 412.102 863.06C419.026 853.29 409.742 837.226 402.078 830.873C385.634 817.273 361.218 829.916 344.47 816.316C338.357 811.355 334.949 803.78 329.314 798.297C318.571 787.873 301.972 786.805 287.011 787.612C272.029 788.416 256.262 790.333 242.681 784.042C214.924 771.158 211.254 732.598 189.287 711.336C180.335 702.677 168.345 697.214 155.919 696.104C139.541 694.667 123.641 700.523 107.832 705.311L107.836 705.307Z" fill="#9A9AE6"/>
<path d="M258.386 836.609C259.948 824.901 261.611 812.345 266.423 801.503C266.789 800.683 268.144 800.745 268.09 801.784C267.612 810.891 265.833 819.952 264.457 829.03C272.266 826.475 276.194 820.279 282.211 814.8C282.893 814.179 284.169 814.846 283.811 815.79C280.619 824.197 273.147 832.824 263.759 833.954C263.551 835.557 263.364 837.16 263.211 838.762C262.147 849.894 263.053 861.755 260.468 872.626C260.102 874.167 257.821 873.948 257.471 872.523C254.699 861.147 256.852 848.089 258.382 836.605L258.386 836.609Z" fill="#7474CD"/>
<path d="M93.54 785.281C99.6906 793.17 105.114 801.457 112.191 808.609C117.507 813.98 123.691 818.18 129.559 822.789C129.405 819.629 129.201 816.453 128.885 813.239C126.758 791.6 121.812 770.376 119.551 748.779C119.435 747.669 121.114 747.549 121.43 748.526C127.285 766.69 131.109 785.807 133.569 804.816C135.468 800.699 137.929 796.636 139.304 792.553C141.241 786.797 141.54 779.491 144.91 774.455C145.068 774.219 145.509 774.141 145.646 774.455C148.289 780.572 145.629 789.008 143.743 795.079C141.872 801.093 139.454 808.82 134.562 813.136C136.877 834.294 138.153 857.825 131.857 878.341C131.096 880.826 126.837 880.52 127.098 877.7C128.653 860.799 130.14 844.631 129.746 828.007C113.18 820.834 97.0724 802.65 90.8054 786.867C90.2194 785.388 92.555 784.009 93.5441 785.281H93.54Z" fill="#7474CD"/>
<path d="M36.9656 732.922C37.4477 731.36 40.2197 731.547 39.9828 733.328C37.5558 751.372 35.4862 769.37 35.1121 787.513C41.7532 784.316 48.1075 782.341 53.0072 775.561C57.8363 768.881 61.3812 761.439 65.5495 754.37C66.0649 753.492 67.748 753.79 67.615 754.929C65.6368 771.743 53.0114 791.191 35.029 793.224C35.029 796.181 35.0789 799.146 35.1828 802.116C36.0597 826.657 42.0399 849.555 46.3288 873.534C46.7069 875.637 43.5859 877.406 42.5553 875.12C33.0176 853.962 30.042 829.059 28.9033 806.071C27.6856 781.533 29.6763 756.453 36.9698 732.922H36.9656Z" fill="#7474CD"/>
<path d="M132.886 715.528C133.027 715.528 133.027 715.747 132.886 715.747C132.746 715.747 132.746 715.528 132.886 715.528Z" fill="#F7F7FF"/>
<path d="M84.5134 816.47C84.7212 815.315 85.2157 813.472 86.184 812.648C86.4375 812.432 87.6261 811.828 87.9461 812.238C89.118 813.733 88.6401 815.547 88.6775 817.373C88.7191 819.477 89.8412 821.779 88.8521 823.759C88.5819 824.297 87.7882 824.62 87.2147 824.422C84.2308 823.403 84.0396 819.092 84.5134 816.47Z" fill="#9A9AE6"/>
<path d="M76.235 782.399C76.9872 779.347 81.3592 780.693 80.873 783.675C80.2828 787.29 80.4532 791.034 79.3727 794.554C79.0153 795.718 77.2407 796.103 76.6298 794.91C74.6018 790.963 75.2127 786.557 76.235 782.395V782.399Z" fill="#9A9AE6"/>
<path d="M65.5749 818.669C65.6539 814.801 65.604 810.825 66.776 807.106C67.2207 805.702 69.1947 805.702 69.6394 807.106C70.8155 810.825 70.7656 814.801 70.8404 818.669C70.9152 822.372 71.1853 825.61 69.3983 828.94C68.9162 829.838 67.4949 829.838 67.0129 828.94C65.2259 825.614 65.5001 822.372 65.5708 818.669H65.5749Z" fill="#9A9AE6"/>
<path d="M50.1324 810.974C50.1615 808.079 50.3319 805.201 50.5023 802.31C50.6602 799.622 54.5417 799.618 54.6997 802.31C54.8701 805.201 55.0404 808.075 55.0695 810.974C55.0903 813.301 55.3895 815.687 53.6773 817.459C53.1163 818.039 52.094 818.039 51.5288 817.459C49.8165 815.687 50.1116 813.301 50.1365 810.974H50.1324Z" fill="#9A9AE6"/>
<path d="M154.814 707.622C155.272 706.736 156.743 706.939 156.967 707.904C157.965 712.194 157.773 717.69 155.691 721.633C155.031 722.879 152.994 722.593 152.666 721.239C151.614 716.911 152.799 711.528 154.814 707.626V707.622Z" fill="#9A9AE6"/>
<path d="M145.958 738.828C146.112 735.577 146.519 732.533 147.313 729.385C147.608 728.217 149.387 728.217 149.682 729.385C150.475 732.537 150.883 735.572 151.036 738.828C151.165 741.515 151.656 744.166 149.316 745.922C148.905 746.228 148.09 746.228 147.679 745.922C145.326 744.157 145.829 741.536 145.958 738.828Z" fill="#9A9AE6"/>
<path d="M127.577 720.544C128.08 718.183 128.653 715.856 130.278 714.004C130.839 713.367 132.003 713.702 132.19 714.506C132.697 716.721 132.298 718.92 132.156 721.161C132.015 723.331 132.115 725.758 130.76 727.576C130.033 728.553 128.636 728.694 127.93 727.576C126.588 725.447 127.082 722.879 127.577 720.544Z" fill="#9A9AE6"/>
<path d="M112.287 717.864C112.952 716.92 114.644 716.907 114.939 718.208C115.371 720.117 115.18 722.171 115.205 724.126C115.226 726.093 115.392 728.358 114.635 730.201C114.058 731.609 112.113 732.135 111.236 730.644C109.262 727.294 110.093 720.991 112.292 717.864H112.287Z" fill="#9A9AE6"/>
<path d="M1440 847.281H0V954H1440V847.281Z" fill="#CECEFF"/>
<path d="M1440 862H0V953.831H1440V862Z" fill="#9498B2"/>
<path d="M617.258 914.992H1220.91C1225.37 914.992 1228.98 911.389 1228.98 906.945C1228.98 902.502 1225.37 898.899 1220.91 898.899H617.258C612.799 898.899 609.184 902.502 609.184 906.945C609.184 911.389 612.799 914.992 617.258 914.992Z" fill="#757CA4"/>
<path d="M945.396 668.713H1084.45C1085.76 668.713 1086.83 669.773 1086.83 671.078V692.22H943.023V671.078C943.023 669.773 944.087 668.713 945.396 668.713Z" fill="#D13B3F"/>
<path d="M757.876 668.713H797.107C798.416 668.713 799.48 669.773 799.48 671.078V692.22H755.503V671.078C755.503 669.773 756.567 668.713 757.876 668.713Z" fill="#D13B3F"/>
<path d="M674.343 668.713H713.574C714.883 668.713 715.947 669.773 715.947 671.078V692.22H671.97V671.078C671.97 669.773 673.034 668.713 674.343 668.713Z" fill="#D13B3F"/>
<path d="M1044.44 869.421C1044.44 864.327 1045.23 859.432 1046.75 854.831C1052.94 835.441 1071.12 821.39 1092.6 821.39C1119.18 821.39 1140.75 842.933 1140.75 869.421C1140.75 873.757 1139.99 878.561 1138.88 882.545H1046.31C1045.08 878.383 1044.45 873.977 1044.45 869.421H1044.44Z" fill="#161932"/>
<path d="M762.576 826.168C787.079 826.168 806.964 846.026 806.964 870.444C806.964 874.643 806.374 878.701 805.244 882.541H719.912C718.782 878.706 718.191 874.643 718.191 870.444C718.191 865.751 718.915 861.237 720.319 856.992C726.025 839.118 742.786 826.164 762.576 826.164V826.168Z" fill="#161932"/>
<path d="M621.527 675.448H1210.66C1223.24 675.448 1233.43 685.606 1233.43 698.138V880.068C1233.43 883.526 1230.62 886.326 1227.15 886.326H1135.48C1134.26 886.326 1133.38 885.332 1133.63 884.135C1134.25 881.145 1136.6 877.861 1136.6 874.846C1136.6 851.683 1115.84 830.956 1092.6 830.956C1073.81 830.956 1056.01 845.14 1050.6 862.082C1049.27 866.112 1048.59 870.382 1048.59 874.846C1048.59 878.023 1050.83 881.104 1051.53 884.057C1051.8 885.229 1050.87 886.326 1049.67 886.326H805.498C804.301 886.326 803.366 885.229 803.632 884.057C804.334 881.108 806.578 878.023 806.578 874.846C806.578 854.462 790.507 835.288 770.393 831.656C748.342 827.684 726.748 842.813 720.602 862.082C719.256 866.112 718.57 870.382 718.57 874.846C718.57 878.031 720.839 881.124 721.516 884.081C721.782 885.237 720.843 886.326 719.655 886.326H611.112C606.591 886.326 603.025 882.421 603.607 877.795C601.994 876.511 600.752 874.904 599.954 873.107C599.156 871.442 598.757 869.607 598.757 867.735V698.134C598.757 685.602 608.951 675.443 621.527 675.443V675.448Z" fill="#F75459"/>
<path d="M611.125 886.338H614.694C610.177 886.338 606.607 882.425 607.181 877.799H603.607C603.037 882.421 606.607 886.338 611.125 886.338Z" fill="#4E527C"/>
<path d="M796.093 874.842C796.093 893.287 781.09 908.238 762.58 908.238C744.07 908.238 729.067 893.287 729.067 874.842C729.067 856.396 744.074 841.446 762.58 841.446C781.086 841.446 796.093 856.4 796.093 874.842Z" fill="#22264F"/>
<path d="M762.58 905.099C779.32 905.099 792.939 891.527 792.939 874.842C792.939 858.156 779.32 844.585 762.58 844.585C745.84 844.585 732.218 858.156 732.218 874.842C732.218 891.527 745.836 905.099 762.58 905.099Z" fill="#44436A"/>
<path d="M762.58 853.386C750.707 853.386 741.049 863.01 741.049 874.842C741.049 886.674 750.707 896.295 762.58 896.295C774.454 896.295 784.108 886.67 784.108 874.842C784.108 863.014 774.45 853.386 762.58 853.386Z" fill="#161932"/>
<path d="M762.581 889.9C754.248 889.9 747.466 883.146 747.466 874.842C747.466 866.539 754.248 859.78 762.581 859.78C770.913 859.78 777.691 866.539 777.691 874.842C777.691 883.146 770.913 889.9 762.581 889.9Z" fill="#666A96"/>
<path d="M762.564 881.116C759.09 881.116 756.268 878.3 756.268 874.842C756.268 871.384 759.094 868.568 762.564 868.568C766.034 868.568 768.86 871.384 768.86 874.842C768.86 878.3 766.034 881.116 762.564 881.116Z" fill="#22264F"/>
<path d="M764.404 864.174C764.404 865.213 763.561 866.058 762.513 866.058C761.466 866.058 760.623 865.218 760.623 864.174C760.623 863.13 761.47 862.29 762.513 862.29C763.557 862.29 764.404 863.134 764.404 864.174Z" fill="#22264F"/>
<path d="M775.057 874.784C775.057 875.824 774.209 876.668 773.166 876.668C772.123 876.668 771.275 875.824 771.275 874.784C771.275 873.745 772.123 872.9 773.166 872.9C774.209 872.9 775.057 873.745 775.057 874.784Z" fill="#22264F"/>
<path d="M753.882 874.784C753.882 875.824 753.034 876.668 751.991 876.668C750.948 876.668 750.1 875.824 750.1 874.784C750.1 873.745 750.948 872.9 751.991 872.9C753.034 872.9 753.882 873.745 753.882 874.784Z" fill="#22264F"/>
<path d="M757.107 867.023C757.107 868.063 756.259 868.907 755.216 868.907C754.173 868.907 753.325 868.063 753.325 867.023C753.325 865.984 754.173 865.139 755.216 865.139C756.259 865.139 757.107 865.98 757.107 867.023Z" fill="#22264F"/>
<path d="M772.064 867.023C772.064 868.063 771.216 868.907 770.173 868.907C769.13 868.907 768.282 868.063 768.282 867.023C768.282 865.984 769.13 865.139 770.173 865.139C771.216 865.139 772.064 865.98 772.064 867.023Z" fill="#22264F"/>
<path d="M755.221 884.437C756.265 884.437 757.111 883.594 757.111 882.553C757.111 881.512 756.265 880.669 755.221 880.669C754.176 880.669 753.33 881.512 753.33 882.553C753.33 883.594 754.176 884.437 755.221 884.437Z" fill="#22264F"/>
<path d="M772.064 882.553C772.064 883.592 771.216 884.437 770.173 884.437C769.13 884.437 768.282 883.592 768.282 882.553C768.282 881.513 769.13 880.669 770.173 880.669C771.216 880.669 772.064 881.509 772.064 882.553Z" fill="#22264F"/>
<path d="M764.404 885.506C764.404 886.546 763.561 887.391 762.513 887.391C761.466 887.391 760.623 886.546 760.623 885.506C760.623 884.467 761.47 883.622 762.513 883.622C763.557 883.622 764.404 884.467 764.404 885.506Z" fill="#22264F"/>
<path d="M1237.27 886.325H1226.33V866.057H1238.35C1238.95 866.057 1239.44 866.542 1239.44 867.142V884.163C1239.44 885.356 1238.47 886.325 1237.27 886.325H1237.27Z" fill="#F75459"/>
<path d="M1126.11 874.842C1126.11 893.287 1111.11 908.238 1092.6 908.238C1074.09 908.238 1059.08 893.287 1059.08 874.842C1059.08 856.396 1074.09 841.446 1092.6 841.446C1111.1 841.446 1126.11 856.4 1126.11 874.842Z" fill="#22264F"/>
<path d="M1092.6 905.098C1109.34 905.098 1122.95 891.527 1122.95 874.842C1122.95 858.156 1109.34 844.585 1092.6 844.585C1075.86 844.585 1062.23 858.156 1062.23 874.842C1062.23 891.527 1075.85 905.098 1092.6 905.098Z" fill="#44436A"/>
<path d="M1092.6 853.385C1080.72 853.385 1071.06 863.01 1071.06 874.842C1071.06 886.674 1080.72 896.294 1092.6 896.294C1104.47 896.294 1114.12 886.67 1114.12 874.842C1114.12 863.014 1104.47 853.385 1092.6 853.385Z" fill="#161932"/>
<path d="M1092.6 889.9C1084.26 889.9 1077.48 883.145 1077.48 874.842C1077.48 866.538 1084.26 859.78 1092.6 859.78C1100.93 859.78 1107.71 866.538 1107.71 874.842C1107.71 883.145 1100.93 889.9 1092.6 889.9Z" fill="#666A96"/>
<path d="M1092.58 881.116C1089.11 881.116 1086.28 878.3 1086.28 874.842C1086.28 871.384 1089.11 868.568 1092.58 868.568C1096.05 868.568 1098.88 871.384 1098.88 874.842C1098.88 878.3 1096.05 881.116 1092.58 881.116Z" fill="#22264F"/>
<path d="M1094.42 864.174C1094.42 865.213 1093.57 866.058 1092.53 866.058C1091.49 866.058 1090.64 865.217 1090.64 864.174C1090.64 863.13 1091.49 862.289 1092.53 862.289C1093.57 862.289 1094.42 863.134 1094.42 864.174Z" fill="#22264F"/>
<path d="M1105.07 874.784C1105.07 875.823 1104.22 876.668 1103.18 876.668C1102.13 876.668 1101.29 875.823 1101.29 874.784C1101.29 873.744 1102.13 872.9 1103.18 872.9C1104.22 872.9 1105.07 873.744 1105.07 874.784Z" fill="#22264F"/>
<path d="M1083.9 874.784C1083.9 875.823 1083.05 876.668 1082.01 876.668C1080.96 876.668 1080.12 875.823 1080.12 874.784C1080.12 873.744 1080.96 872.9 1082.01 872.9C1083.05 872.9 1083.9 873.744 1083.9 874.784Z" fill="#22264F"/>
<path d="M1087.12 867.023C1087.12 868.062 1086.27 868.907 1085.23 868.907C1084.19 868.907 1083.34 868.062 1083.34 867.023C1083.34 865.983 1084.19 865.139 1085.23 865.139C1086.27 865.139 1087.12 865.979 1087.12 867.023Z" fill="#22264F"/>
<path d="M1102.08 867.023C1102.08 868.062 1101.23 868.907 1100.19 868.907C1099.15 868.907 1098.3 868.062 1098.3 867.023C1098.3 865.983 1099.15 865.139 1100.19 865.139C1101.23 865.139 1102.08 865.979 1102.08 867.023Z" fill="#22264F"/>
<path d="M1087.12 882.553C1087.12 883.592 1086.27 884.437 1085.23 884.437C1084.19 884.437 1083.34 883.592 1083.34 882.553C1083.34 881.513 1084.19 880.668 1085.23 880.668C1086.27 880.668 1087.12 881.509 1087.12 882.553Z" fill="#22264F"/>
<path d="M1102.08 882.553C1102.08 883.592 1101.23 884.437 1100.19 884.437C1099.15 884.437 1098.3 883.592 1098.3 882.553C1098.3 881.513 1099.15 880.668 1100.19 880.668C1101.23 880.668 1102.08 881.509 1102.08 882.553Z" fill="#22264F"/>
<path d="M1094.42 885.506C1094.42 886.546 1093.57 887.39 1092.53 887.39C1091.49 887.39 1090.64 886.546 1090.64 885.506C1090.64 884.467 1091.49 883.622 1092.53 883.622C1093.57 883.622 1094.42 884.467 1094.42 885.506Z" fill="#22264F"/>
<path d="M973.997 796.624H969.197V886.322H973.997V796.624Z" fill="#D13B3F"/>
<path d="M1161.47 796.64H1156.67V886.429H1161.47V796.64Z" fill="#D13B3F"/>
<path d="M1224.08 863.664H1219.29V886.325H1224.08V863.664Z" fill="#D13B3F"/>
<path d="M1036.3 796.624H1031.5V886.322H1036.3V796.624Z" fill="#D13B3F"/>
<path d="M834.51 795.34H829.71V886.322H834.51V795.34Z" fill="#D13B3F"/>
<path d="M1233.43 793.874H695.447V798.657H1233.43V793.874Z" fill="#D13B3F"/>
<path d="M834.011 813.822H695.447V818.605H834.011V813.822Z" fill="#D13B3F"/>
<path d="M1157.17 813.822H1032.65V818.605H1157.17V813.822Z" fill="#D13B3F"/>
<path d="M1233.44 861.27H1157.17V866.054H1233.44V861.27Z" fill="#D13B3F"/>
<path d="M1211.06 817.161H1179.55V861.271H1211.06V817.161Z" fill="#D13B3F"/>
<path d="M908.397 804.984H897.01V808.621H908.397V804.984Z" fill="#22264F"/>
<path d="M768.274 804.984H756.887V808.621H768.274V804.984Z" fill="#22264F"/>
<path d="M1010.34 804.984H998.952V808.621H1010.34V804.984Z" fill="#22264F"/>
<path d="M1008.9 874.369H1000.39C999.596 874.369 998.952 875.011 998.952 875.802V876.573C998.952 877.364 999.596 878.006 1000.39 878.006H1008.9C1009.7 878.006 1010.34 877.364 1010.34 876.573V875.802C1010.34 875.011 1009.7 874.369 1008.9 874.369Z" fill="#FF7522"/>
<path d="M898.697 874.37H906.701C907.632 874.37 908.392 875.123 908.392 876.055V876.324C908.392 877.252 907.636 878.01 906.701 878.01H898.692C897.762 878.01 897.001 877.256 897.001 876.324V876.055C897.001 875.128 897.757 874.37 898.692 874.37H898.697Z" fill="#FF7522"/>
<path d="M1100.27 804.984H1088.88V808.621H1100.27V804.984Z" fill="#22264F"/>
<path d="M709.468 849.848C713.526 849.848 716.816 846.57 716.816 842.526C716.816 838.482 713.526 835.204 709.468 835.204C705.41 835.204 702.121 838.482 702.121 842.526C702.121 846.57 705.41 849.848 709.468 849.848Z" fill="#D13B3F"/>
<path d="M695.447 706.226H641.375V862.707H695.447V706.226Z" fill="#22264F"/>
<path d="M647.281 714.094L647.069 855.389C647.069 856.433 647.917 857.282 648.968 857.282H687.85C688.898 857.282 689.75 856.437 689.75 855.389L689.962 714.094C689.962 713.05 689.114 712.201 688.062 712.201H649.18C648.133 712.201 647.281 713.046 647.281 714.094Z" fill="#4E527C"/>
<path d="M695.447 862.711H641.375V882.536H695.447V862.711Z" fill="#22264F"/>
<path d="M695.447 882.536H641.375V886.338H695.447V882.536Z" fill="#4E527C"/>
<path d="M1015.31 706.229H905.903C904.854 706.229 904.004 707.077 904.004 708.122V776.782C904.004 777.827 904.854 778.674 905.903 778.674H1015.31C1016.35 778.674 1017.2 777.827 1017.2 776.782V708.122C1017.2 707.077 1016.35 706.229 1015.31 706.229Z" fill="#22264F"/>
<path d="M1009.62 711.904H911.592C910.543 711.904 909.693 712.751 909.693 713.796V771.109C909.693 772.154 910.543 773.001 911.592 773.001H1009.62C1010.66 773.001 1011.51 772.154 1011.51 771.109V713.796C1011.51 712.751 1010.66 711.904 1009.62 711.904Z" fill="#4E527C"/>
<path d="M1135.2 778.674H1025.79C1024.75 778.674 1023.9 777.83 1023.9 776.786V708.122C1023.9 707.078 1024.74 706.229 1025.79 706.229H1135.2C1136.25 706.229 1137.1 707.078 1137.1 708.122V776.782C1137.1 777.825 1136.25 778.674 1135.2 778.674Z" fill="#22264F"/>
<path d="M1129.5 711.904H1031.5C1030.45 711.904 1029.6 712.751 1029.6 713.796V771.109C1029.6 772.154 1030.45 773.001 1031.5 773.001H1129.5C1130.55 773.001 1131.4 772.154 1131.4 771.109V713.796C1131.4 712.751 1130.55 711.904 1129.5 711.904Z" fill="#4E527C"/>
<path d="M895.41 706.226H787.906C786.857 706.226 786.007 707.073 786.007 708.118V776.782C786.007 777.827 786.857 778.675 787.906 778.675H895.41C896.459 778.675 897.309 777.827 897.309 776.782V708.118C897.309 707.073 896.459 706.226 895.41 706.226Z" fill="#22264F"/>
<path d="M889.707 711.904H793.599C792.55 711.904 791.7 712.751 791.7 713.796V771.109C791.7 772.154 792.55 773.001 793.599 773.001H889.707C890.756 773.001 891.606 772.154 891.606 771.109V713.796C891.606 712.751 890.756 711.904 889.707 711.904Z" fill="#4E527C"/>
<path d="M777.413 706.226C778.46 706.226 779.312 707.07 779.312 708.118V777.097C779.312 778.012 778.656 778.795 777.754 778.956L695.447 793.874V706.226H777.417H777.413Z" fill="#22264F"/>
<path d="M701.132 713.796V784.961C701.132 786.146 702.212 787.04 703.38 786.821L772.072 773.904C772.97 773.734 773.618 772.956 773.618 772.045V713.796C773.618 712.753 772.77 711.904 771.719 711.904H703.027C701.979 711.904 701.127 712.748 701.127 713.796H701.132Z" fill="#4E527C"/>
<path d="M598.757 708.284V820.602C598.757 821.484 599.605 822.329 600.656 822.329H641.379V706.226H600.656C599.609 706.226 598.757 707.075 598.757 708.28V708.284Z" fill="#22264F"/>
<path d="M633.787 711.904H606.35C605.301 711.904 604.451 712.751 604.451 713.796V815.127C604.451 816.172 605.301 817.02 606.35 817.02H633.787C634.836 817.02 635.686 816.172 635.686 815.127V713.796C635.686 712.751 634.836 711.904 633.787 711.904Z" fill="#4E527C"/>
<path d="M1145.69 706.229H1209.19C1210.24 706.229 1211.09 707.078 1211.09 708.122V721.031C1211.09 724.071 1209.92 726.994 1207.81 729.198L1175.82 775.912C1174.13 777.676 1171.79 778.679 1169.35 778.679H1145.7C1144.65 778.679 1143.8 777.834 1143.8 776.786V708.126C1143.8 707.083 1144.64 706.234 1145.7 706.234L1145.69 706.229Z" fill="#22264F"/>
<path d="M1149.48 713.796V771.113C1149.48 772.156 1150.33 773.005 1151.38 773.005H1169.34C1170.23 773.005 1171.08 772.645 1171.71 772.003L1194.55 738.607L1201.01 729.173L1203.69 725.276C1204.79 724.121 1205.39 722.63 1205.39 721.039V713.796C1205.39 712.753 1204.55 711.904 1203.49 711.904H1151.39C1150.34 711.904 1149.49 712.748 1149.49 713.796H1149.48Z" fill="#4E527C"/>
<path d="M1226.33 839.263V866.054H1233.44V836.236H1229.36C1227.69 836.236 1226.33 837.599 1226.33 839.259V839.263Z" fill="#E82A38"/>
<path d="M598.757 848.337L602.335 858.972C602.335 859.597 598.907 869.607 598.907 869.607C599.077 870.816 599.418 872.009 599.95 873.106C602.93 872.481 605.564 871.007 607.634 868.944C610.406 866.182 612.131 862.343 612.131 858.127V848.333H598.753L598.757 848.337Z" fill="#D13B3F"/>
<path d="M598.757 848.337V867.739C598.757 868.364 598.794 868.985 598.911 869.611C599.251 869.553 599.804 869.404 600.24 869.25C602.007 868.625 603.619 867.623 604.928 866.302C607.147 864.107 608.344 861.216 608.344 858.135V848.341H598.761L598.757 848.337Z" fill="#B7C6D5"/>
<path d="M1043.05 874.66C1043.05 878.689 1043.55 882.582 1044.46 886.326H1049.68C1050.88 886.326 1051.8 885.228 1051.54 884.056C1050.83 881.108 1050.49 878.022 1050.49 874.846C1050.49 870.381 1051.18 866.108 1052.51 862.082C1057.91 845.14 1073.82 832.848 1092.6 832.848C1115.84 832.848 1134.71 851.683 1134.71 874.846C1134.71 877.832 1134.29 881.087 1133.64 884.056C1133.4 885.228 1134.29 886.326 1135.48 886.326H1140.74C1141.65 882.582 1142.15 878.685 1142.15 874.66C1142.15 847.43 1119.93 825.286 1092.6 825.286C1065.28 825.286 1043.05 847.43 1043.05 874.66Z" fill="#22264F"/>
<path d="M713.035 874.66C713.035 878.689 713.529 882.582 714.439 886.326H719.655C720.852 886.326 721.783 885.228 721.517 884.056C720.814 881.108 720.474 878.022 720.474 874.846C720.474 870.381 721.155 866.108 722.485 862.082C727.892 845.14 743.796 832.848 762.581 832.848C785.824 832.848 804.688 851.683 804.688 874.846C804.688 877.832 804.276 881.087 803.632 884.056C803.387 885.228 804.272 886.326 805.465 886.326H810.722C811.632 882.582 812.127 878.685 812.127 874.66C812.127 847.43 789.905 825.286 762.581 825.286C735.256 825.286 713.035 847.43 713.035 874.66Z" fill="#22264F"/>
<path d="M641.375 848.337H598.757V853.12H641.375V848.337Z" fill="#D13B3F"/>
<path d="M1065.31 711.904L1113.34 773.001H1121.38L1073.36 711.904H1065.31Z" fill="#666A96"/>
<path d="M1029.6 711.904V713.643L1075.88 773.001H1091.97L1043.96 711.904H1029.6Z" fill="#666A96"/>
<path d="M1166.68 711.904L1194.56 738.607L1201 729.169L1182.79 711.904H1166.68Z" fill="#666A96"/>
<path d="M946.257 711.904L994.286 773.001H1002.33L954.303 711.904H946.257Z" fill="#666A96"/>
<path d="M909.694 711.904V721.549L948.044 773.001H964.152L916.127 711.904H909.694Z" fill="#666A96"/>
<path d="M815.082 773.002L791.701 743.258V763.547L798.969 773.002H815.082Z" fill="#666A96"/>
<path d="M751.987 711.904L773.618 740.044V720.261L767.052 711.904H751.987Z" fill="#666A96"/>
<path d="M794.073 711.904L842.103 773.001H850.148L802.14 711.904H794.073Z" fill="#666A96"/>
<path d="M653.394 712.206L689.745 757.778V748.667L660.679 712.206H653.394Z" fill="#666A96"/>
<path d="M666.273 857.282L647.069 833.324V842.398L658.988 857.282H666.273Z" fill="#666A96"/>
<path d="M604.451 780.149V789.243L626.726 817.023H633.995L604.451 780.149Z" fill="#666A96"/>
<path d="M689.745 787.202L647.252 734.197V752.39L689.745 805.395V787.202Z" fill="#666A96"/>
<path d="M614.791 711.904L635.686 737.961V719.772L629.386 711.904H614.791Z" fill="#666A96"/>
<path d="M625.579 697.665V692.327H591.871C587.154 692.327 583.318 696.15 583.318 700.85V716.786H588.675V700.85C588.675 699.094 590.109 697.661 591.875 697.661H625.583L625.579 697.665Z" fill="#F75459"/>
<path d="M583.044 732.569H588.097C588.439 732.569 588.716 732.293 588.716 731.952V701.952C588.716 701.611 588.439 701.335 588.097 701.335H583.044C582.702 701.335 582.424 701.611 582.424 701.952V731.952C582.424 732.293 582.702 732.569 583.044 732.569Z" fill="#22264F"/>
<path d="M411.656 700.61H190.669V806.72H411.656V700.61Z" fill="#F75459"/>
<path d="M303.979 673.128H298.343V806.72H303.979V673.128Z" fill="#22264F"/>
<path d="M422.013 677.074H180.31C180.31 665.11 190.043 655.41 202.049 655.41H400.27C412.276 655.41 422.009 665.11 422.009 677.074H422.013Z" fill="#F75459"/>
<path d="M218.351 654.148V678.404H213.518V654.148C213.518 652.818 214.599 651.742 215.933 651.742C217.267 651.742 218.347 652.818 218.347 654.148H218.351Z" fill="#22264F"/>
<path d="M388.799 654.148V678.404H383.966V654.148C383.966 652.818 385.046 651.742 386.38 651.742C387.714 651.742 388.795 652.818 388.795 654.148H388.799Z" fill="#22264F"/>
<path d="M260.966 654.517V678.773H256.137V654.517C256.137 653.187 257.217 652.111 258.551 652.111C259.885 652.111 260.966 653.187 260.966 654.517Z" fill="#22264F"/>
<path d="M346.189 654.148V678.404H341.356V654.148C341.356 652.818 342.436 651.742 343.771 651.742C345.105 651.742 346.185 652.818 346.185 654.148H346.189Z" fill="#22264F"/>
<path d="M303.576 654.148V678.404H298.747V654.148C298.747 652.818 299.827 651.742 301.161 651.742C302.495 651.742 303.576 652.818 303.576 654.148Z" fill="#22264F"/>
<path d="M333.336 766.147H379.919C380.808 766.147 381.531 766.868 381.531 767.754V817.227H331.719V767.754C331.719 766.868 332.442 766.147 333.332 766.147H333.336Z" fill="#CECEFF"/>
<path d="M277.082 766.147H323.665C324.554 766.147 325.277 766.868 325.277 767.754V814.431H275.465V767.754C275.465 766.868 276.188 766.147 277.078 766.147H277.082Z" fill="#CECEFF"/>
<path d="M220.829 766.147H267.412C268.301 766.147 269.024 766.868 269.024 767.754V818.225H219.212V767.754C219.212 766.868 219.936 766.147 220.825 766.147H220.829Z" fill="#CECEFF"/>
<path d="M398 817.231H204.326V821.244H398V817.231Z" fill="#22264F"/>
<path d="M331.723 785.098V818.229H325.281V785.098C325.281 783.325 326.723 781.888 328.502 781.888C330.281 781.888 331.723 783.325 331.723 785.098Z" fill="#22264F"/>
<path d="M387.977 785.098V818.229H381.535V785.098C381.535 783.325 382.977 781.888 384.756 781.888C386.535 781.888 387.977 783.325 387.977 785.098Z" fill="#22264F"/>
<path d="M275.469 785.098V818.229H269.028V785.098C269.028 783.325 270.47 781.888 272.249 781.888C274.027 781.888 275.469 783.325 275.469 785.098Z" fill="#22264F"/>
<path d="M245.307 820.838H241.28V847.277H245.307V820.838Z" fill="#22264F"/>
<path d="M359.517 820.838H355.49V847.277H359.517V820.838Z" fill="#22264F"/>
<path d="M219.171 785.098V818.229H212.729V785.098C212.729 783.325 214.171 781.888 215.95 781.888C217.728 781.888 219.171 783.325 219.171 785.098Z" fill="#22264F"/>
<path d="M381.577 817.231H331.719V808.02C331.719 807.304 332.305 806.72 333.024 806.72H380.276C380.995 806.72 381.581 807.304 381.581 808.02V817.231H381.577Z" fill="#AAABF3"/>
<path d="M325.327 817.231H275.469V808.02C275.469 807.304 276.055 806.72 276.774 806.72H324.026C324.745 806.72 325.331 807.304 325.331 808.02V817.231H325.327Z" fill="#AAABF3"/>
<path d="M269.024 817.231H219.166V808.02C219.166 807.304 219.752 806.72 220.471 806.72H267.723C268.442 806.72 269.028 807.304 269.028 808.02V817.231H269.024Z" fill="#AAABF3"/>
<path d="M192.319 843.267H185.899V677.327H180.263V843.267H173.842C171.619 843.267 169.815 845.065 169.815 847.28H196.346C196.346 845.065 194.543 843.267 192.319 843.267Z" fill="#22264F"/>
<path d="M428.483 843.168H422.063V677.228H416.427V843.168H410.007C407.783 843.168 405.979 844.966 405.979 847.181H432.51C432.51 844.966 430.707 843.168 428.483 843.168Z" fill="#22264F"/>
<path d="M427.649 700.61H422.013V806.72H427.649V700.61Z" fill="#D13B3F"/>
<path d="M180.309 700.61H174.673V806.72H180.309V700.61Z" fill="#D13B3F"/>
<path d="M195.386 706.814H185.849V709.22H195.386V706.814Z" fill="#666A96"/>
<path d="M195.386 798.114H185.849V800.52H195.386V798.114Z" fill="#666A96"/>
<path d="M416.415 706.814H406.877V709.22H416.415V706.814Z" fill="#666A96"/>
<path d="M416.415 798.114H406.877V800.52H416.415V798.114Z" fill="#666A96"/>
<path d="M427.648 675.472H174.673V681.087H427.648V675.472Z" fill="#22264F"/>
<path d="M145.388 784.502H132.239C126.23 784.502 121.359 789.356 121.359 795.344V802.575H156.264V795.344C156.264 789.356 151.393 784.502 145.384 784.502H145.388Z" fill="#22264F"/>
<path d="M143.609 790.656H134.017C130.817 790.656 128.224 793.24 128.224 796.429V802.575H149.402V796.429C149.402 793.24 146.809 790.656 143.609 790.656Z" fill="#4E527C"/>
<path d="M128.224 802.574H121.359V842.874H128.224V802.574Z" fill="#D13B3F"/>
<path d="M156.268 802.574H149.402V842.874H156.268V802.574Z" fill="#D13B3F"/>
<path d="M149.402 802.574H128.224V842.874H149.402V802.574Z" fill="#F75459"/>
<path d="M116.629 847.281H161.001C161.001 844.85 159.023 842.879 156.583 842.879H121.051C118.611 842.879 116.633 844.85 116.633 847.281H116.629Z" fill="#22264F"/>
<path d="M556.525 683.821H460.201V810.886H556.525V683.821Z" fill="#F75459"/>
<path d="M549.892 810.887H466.821V847.281H549.892V810.887Z" fill="#666A96"/>
<path d="M543.268 817.492H473.45V840.676H543.268V817.492Z" fill="#9395B8"/>
<path d="M480.083 822.225V820.266H477.19V822.225H480.083Z" fill="#4E527C"/>
<path d="M539.531 822.221V820.262H536.639V822.221H539.531Z" fill="#4E527C"/>
<path d="M513.77 810.265H530.539V683.319H513.77V810.265Z" fill="#D13B3F"/>
<path d="M507.154 720.599V712.246H466.751V720.599H507.154Z" fill="#D13B3F"/>
<path d="M507.154 775.564H466.75V779.743H507.154V775.564Z" fill="#4E527C"/>
<path d="M507.154 779.743H466.75V782.58H507.154V779.743Z" fill="#22264F"/>
<path d="M528.365 736.383V734.424H522.156V736.383H528.365Z" fill="#D4D3F0"/>
<path d="M528.361 744.836V742.877H522.152V744.836H528.361Z" fill="#D4D3F0"/>
<path d="M528.361 753.292V751.333H522.152V753.292H528.361Z" fill="#D4D3F0"/>
<path d="M528.361 761.745V759.786H522.153V761.745H528.361Z" fill="#D4D3F0"/>
<path d="M502.914 735.144H470.985V761.019H502.914V735.144Z" fill="#4E527C"/>
<path d="M549.975 732.544H536.718V737.75H549.975V732.544Z" fill="#4E527C"/>
<path d="M549.975 758.415H536.718V763.621H549.975V758.415Z" fill="#4E527C"/>
<path d="M549.975 737.75H536.718V758.415H549.975V737.75Z" fill="#D4D3F0"/>
<path d="M520.007 735.402C520.007 736.656 518.989 737.671 517.73 737.671C516.471 737.671 515.453 736.656 515.453 735.402C515.453 734.147 516.471 733.132 517.73 733.132C518.989 733.132 520.007 734.147 520.007 735.402Z" fill="#F87226"/>
<path d="M520.007 743.859C520.007 745.113 518.989 746.128 517.73 746.128C516.471 746.128 515.453 745.113 515.453 743.859C515.453 742.604 516.471 741.589 517.73 741.589C518.989 741.589 520.007 742.604 520.007 743.859Z" fill="#F87226"/>
<path d="M520.007 752.311C520.007 753.566 518.989 754.58 517.73 754.58C516.471 754.58 515.453 753.566 515.453 752.311C515.453 751.056 516.471 750.041 517.73 750.041C518.989 750.041 520.007 751.056 520.007 752.311Z" fill="#F87226"/>
<path d="M520.007 760.768C520.007 762.023 518.989 763.037 517.73 763.037C516.471 763.037 515.453 762.023 515.453 760.768C515.453 759.513 516.471 758.498 517.73 758.498C518.989 758.498 520.007 759.513 520.007 760.768Z" fill="#F87226"/>
<path d="M548.466 740.322H538.222V744.347H548.466V740.322Z" fill="#22264F"/>
<path d="M540.579 749.329H538.222V751.677H540.579V749.329Z" fill="#4E527C"/>
<path d="M544.522 749.329H542.166V751.677H544.522V749.329Z" fill="#4E527C"/>
<path d="M548.466 749.329H546.11V751.677H548.466V749.329Z" fill="#4E527C"/>
<path d="M540.579 753.015H538.222V755.363H540.579V753.015Z" fill="#4E527C"/>
<path d="M544.522 753.015H542.166V755.363H544.522V753.015Z" fill="#4E527C"/>
<path d="M548.466 753.015H546.11V755.363H548.466V753.015Z" fill="#EE822C"/>
<path d="M540.579 745.647H538.222V747.995H540.579V745.647Z" fill="#4E527C"/>
<path d="M544.522 745.647H542.166V747.995H544.522V745.647Z" fill="#4E527C"/>
<path d="M548.466 745.647H546.11V747.995H548.466V745.647Z" fill="#D13B3F"/>
<path d="M556.525 683.821H460.201V692.178H556.525V683.821Z" fill="#BB282B"/>
<path d="M452.883 675.468V685.573H563.84V675.468H452.883Z" fill="#D13B3F"/>
<path d="M488.133 735.145L470.981 757.276V749.987L482.472 735.145H488.133Z" fill="#666A96"/>
<path d="M502.919 735.145V739.493L486.246 761.024H476.077L496.104 735.145H502.919Z" fill="#666A96"/>
<path d="M502.919 735.145L507.154 726.274H466.751L470.986 735.145H502.919Z" fill="#D4D3F0"/>
<path d="M470.986 761.02L466.751 769.895H507.154L502.915 761.02H470.986Z" fill="#D4D3F0"/>
<path d="M502.919 735.145L502.915 761.02L507.153 769.895V726.274L502.919 735.145Z" fill="#9294B9"/>
<path d="M470.986 735.145L466.751 726.274V769.895L470.986 761.02V735.145Z" fill="#9294B9"/>
</g>
<defs>
<clipPath id="clip0_1_5057">
<rect width="1440" height="957" fill="white" transform="translate(0 -3)"/>
</clipPath>
</defs>
</svg>
